# xmcd CD database file
#
# Track frame offsets:
#	150
#	16181
#	25984
#	58508
#	90437
#	105965
#	125079
#	138151
#	150090
#	165964
#	208926
#	241297
#	268442
#	289781
#	320946
#
# Disc length: 4558 seconds
#
# Revision: 4
# Processed by: cddbd v1.5.2PL0 Copyright (c) Steve Scherf et al.
# Submitted via: CDex 1.51
#
DISCID=c811cc0f
DTITLE=Various Artist - Jean-Pierre Rampal ~ L'art de la flûte  [CD 3-3]
DYEAR=2010
DGENRE=Classique
TTITLE0=Vivaldi - Danse pastorale des Quatre Saisons ''Le Printemps''    [1993]
TTITLE1=Bach J.S - Sicilienne de la Sonate pour flûte en mi bémol majeur    [1985]
TTITLE2=Gluck Christoph Willibald - Ballet des ombres heureuses    [1986]
TTITLE3=Mozart W.A - Rondeau du Concerto pour flûte en sol    [1989]
TTITLE4=Fauré Gabriel - Sicilienne, Op.78    [1990]
TTITLE5=Massenet Jules - Méditation de ''Taïs''    [1986]
TTITLE6=Ravel Maurice - Pièce en forme d'Habanera    [1990]
TTITLE7=Joplin Scott - Maple leaf Rag    [1983]
TTITLE8=Gershwin Georges - Summertime    [1985]
TTITLE9=Bolling Claude - Suite n°2 pour flûte et trio jazz avec piano - Espiègle    [1987]
TTITLE10=Bolling Claude - Suite n°2 pour flûte et trio jazz avec piano - Amoureuse
TTITLE11=Bolling Claude - Suite n°2 pour flûte et trio jazz avec piano - Entr'amis
TTITLE12=Bolling Claude - Suite n°2 pour flûte et trio jazz avec piano - Vagabonde
TTITLE13=Bolling Claude - Suite n°2 pour flûte et trio jazz avec piano - Pastorale
TTITLE14=Bolling Claude - Suite n°2 pour flûte et trio jazz avec piano - Affectueuse
EXTD=YEAR: 2010
EXTT0=
EXTT1=
EXTT2=
EXTT3=
EXTT4=
EXTT5=
EXTT6=
EXTT7=
EXTT8=
EXTT9=
EXTT10=
EXTT11=
EXTT12=
EXTT13=
EXTT14=
PLAYORDER=
